<svg width="25" height="25" viewBox="0 0 11 11" fill="none" xmlns="http://www.w3.org/2000/svg">
<path d="M6.60641 10.0365C5.70018 10.3415 4.72055 10.3512 3.80847 10.0641C2.89639 9.77706 2.09889 9.20805 1.53072 8.43898C0.962544 7.66991 0.652986 6.74042 0.646586 5.78426C0.640185 4.82809 0.937271 3.89454 1.4951 3.11793C2.05293 2.34133 2.84274 1.76169 3.75089 1.46244C4.65904 1.16318 5.63871 1.15973 6.54895 1.45258C7.45919 1.74543 8.25306 2.31949 8.81634 3.09215C9.37963 3.86481 9.68328 4.79624 9.68362 5.75243C9.66901 6.11895 9.62464 6.48367 9.55093 6.84299" stroke="#008000" stroke-width="0.5"/>
<path d="M6.23016 9.19679C5.90509 9.56612 5.54873 9.90667 5.16504 10.2147" stroke="#008000" stroke-width="0.5"/>
<path d="M5.16504 1.18115C6.38474 2.2468 7.13946 3.7471 7.26801 5.36165C7.2944 5.65473 7.29987 5.94932 7.28437 6.24318" stroke="#008000" stroke-width="0.5"/>
<path d="M5.16506 1.18115C4.50329 1.75797 3.97164 2.46882 3.60533 3.26661C3.23902 4.0644 3.04642 4.93093 3.04028 5.80878C3.04028 8.7533 4.3635 9.62575 5.15961 10.2147" stroke="#008000" stroke-width="0.5"/>
<path d="M1.23352 3.52586H9.11829" stroke="#008000" stroke-width="0.5"/>
<path d="M5.16504 1.17934V10.2147" stroke="#008000" stroke-width="0.5"/>
<path d="M1.35718 8.17529H6.08113" stroke="#008000" stroke-width="0.5"/>
<path d="M0.646484 5.80878L9.68362 5.69791" stroke="#008000" stroke-width="0.5"/>
<path d="M9.08565 10.2692L9.89085 9.46217L8.43676 8.00808L9.26377 7.47916C9.27583 7.47204 9.28543 7.46142 9.29131 7.44872C9.29719 7.43602 9.29908 7.42183 9.29671 7.40803C9.29434 7.39423 9.28784 7.38148 9.27807 7.37146C9.26829 7.36144 9.2557 7.35463 9.24196 7.35193L6.46284 6.70123C6.45137 6.69889 6.43949 6.69943 6.42827 6.7028C6.41706 6.70618 6.40685 6.71228 6.39857 6.72056C6.39029 6.72884 6.38419 6.73905 6.38081 6.75026C6.37744 6.76148 6.3769 6.77336 6.37923 6.78484L6.98268 9.61666C6.98558 9.63043 6.99251 9.64302 7.00259 9.65284C7.01267 9.66265 7.02544 9.66924 7.03928 9.67178C7.05311 9.67431 7.06739 9.67267 7.08029 9.66706C7.0932 9.66146 7.10414 9.65214 7.11173 9.64029L7.63156 8.8151L9.08565 10.2692Z" stroke="#008000" stroke-width="0.5"/>
</svg>
