<svg width="20" height="20" viewBox="3 0 17 17" fill="none" xmlns="http://www.w3.org/2000/svg">
<path d="M14.0235 0.179337H2.63448C1.28662 0.179337 0.19397 1.27199 0.19397 2.61984V14.0089C0.19397 15.3567 1.28662 16.4494 2.63448 16.4494H14.0235C15.3714 16.4494 16.464 15.3567 16.464 14.0089V2.61984C16.464 1.27199 15.3714 0.179337 14.0235 0.179337Z" fill="white"/>
<mask id="mask0_213_83" style="mask-type:luminance" maskUnits="userSpaceOnUse" x="4" y="2" width="9" height="13">
<path d="M12.1105 4.50106C11.8524 4.0022 11.4975 3.55979 11.0665 3.19968C10.6354 2.83957 10.1369 2.56899 9.60012 2.40375C9.1883 2.27719 8.75986 2.21293 8.32903 2.21309C7.70466 2.20978 7.08732 2.34485 6.52138 2.60859C5.95545 2.87232 5.45498 3.25818 5.05595 3.7384C4.415 4.50435 4.066 5.47253 4.07085 6.47126C4.07085 7.6788 4.48396 8.50502 4.48396 8.50502C4.96062 9.52189 5.81861 10.4434 6.42238 11.2379C6.77213 11.6924 7.09064 12.1702 7.3757 12.6679C7.60082 13.0932 7.78184 13.5404 7.91592 14.0025C8.01125 14.3203 8.10658 14.4156 8.32903 14.4156C8.55147 14.4156 8.67858 14.2567 8.74213 14.0025C8.8692 13.5528 9.03947 13.1165 9.25057 12.6996C9.67161 11.9943 10.1499 11.3247 10.6806 10.6977C10.8394 10.507 11.6974 9.45834 12.1105 8.6639C12.1105 8.6639 12.5872 7.74236 12.5872 6.50304C12.5872 5.32727 12.1105 4.50106 12.1105 4.50106Z" fill="white"/>
</mask>
<g mask="url(#mask0_213_83)">
<path d="M3.49878 12.223L8.32895 6.47127Z" fill="black"/>
<path d="M3.49878 12.223L8.32895 6.47127" stroke="#FBBC04" stroke-width="4.13106"/>
<path d="M8.32898 6.47127L12.2058 1.86354Z" fill="black"/>
<path d="M8.32898 6.47127L12.2058 1.86354" stroke="#4285F4" stroke-width="4.13106"/>
<path d="M6.19995 14.7652L13.9219 5.54973Z" fill="black"/>
<path d="M6.19995 14.7652L13.9219 5.54973" stroke="#34A853" stroke-width="4.13106"/>
<path d="M8.29716 3.99263L5.78674 1.86354Z" fill="black"/>
<path d="M8.29716 3.99263L5.78674 1.86354" stroke="#1A73E8" stroke-width="4.13106"/>
<path d="M2.60901 7.55171L5.50075 4.08797Z" fill="black"/>
<path d="M2.60901 7.55171L5.50075 4.08797" stroke="#EA4335" stroke-width="4.13106"/>
</g>
<path d="M8.32902 8.09191C9.22408 8.09191 9.94967 7.36632 9.94967 6.47127C9.94967 5.57621 9.22408 4.85062 8.32902 4.85062C7.43396 4.85062 6.70837 5.57621 6.70837 6.47127C6.70837 7.36632 7.43396 8.09191 8.32902 8.09191Z" fill="white"/>
</svg>
