<?xml version="1.0" encoding="iso-8859-1"?>
<!-- Uploaded to: SVG Repo, www.svgrepo.com, Generator: SVG Repo Mixer Tools -->
<svg fill="#000000" height="30" width="30" version="1.1" id="Layer_1" xmlns="http://www.w3.org/2000/svg" xmlns:xlink="http://www.w3.org/1999/xlink" 
	 viewBox="0 0 512.001 512.001" xml:space="preserve">
<g>
	<g>
		<path d="M428.551,264.968H275.898v-96.22l153.836,0.375c0.034,0,0.069,0,0.105,0c15.905,0,30.172-8.856,37.25-23.13
			c7.054-14.228,5.46-30.885-4.161-43.474c-23.822-31.164-54.867-56.965-89.784-74.615C336.512,9.388,296.991,0,255.677,0
			c-41.094,0-80.425,9.292-116.902,27.619c-34.767,17.468-65.745,43.023-89.585,73.906c-9.677,12.534-11.35,29.178-4.367,43.434
			c7.025,14.342,21.296,23.275,37.243,23.315l154.037,0.375v96.318H83.448c-23.556,0-42.72,19.164-42.72,42.721v48.86
			c0,23.218,18.62,42.154,41.711,42.694v92.862c0,10.989,8.909,19.898,19.898,19.898s19.898-8.909,19.898-19.898v-92.835h267.372
			v92.835c0,10.989,8.909,19.898,19.898,19.898s19.898-8.909,19.898-19.898v-92.858c23.164-0.456,41.869-19.428,41.869-42.698
			v-48.86C471.27,284.132,452.107,264.968,428.551,264.968z"/>
	</g>
</g>
</svg>